<svg height="512" viewBox="0 0 32 32" width="512" xmlns="http://www.w3.org/2000/svg"><g id="Ikon"><rect fill="#ffb300" height="25" rx="3" width="20" x="6" y="5"/><rect fill="#fafafa" height="21" rx="2" width="16" x="8" y="7"/><path d="m19 4h-.17139a3.00026 3.00026 0 0 0 -5.65722 0h-.17139a2.002 2.002 0 0 0 -2 2v1a2.002 2.002 0 0 0 2 2h6a2.002 2.002 0 0 0 2-2v-1a2.002 2.002 0 0 0 -2-2z" fill="#424242"/><circle cx="16" cy="18" fill="#7cb342" r="7"/><path d="m19 17h-2v-2a1 1 0 0 0 -2 0v2h-2a1 1 0 0 0 0 2h2v2a1 1 0 0 0 2 0v-2h2a1 1 0 0 0 0-2z" fill="#fafafa"/></g></svg>