<svg id="Layer_1" enable-background="new 0 0 512 512" height="512" viewBox="0 0 512 512" width="512" xmlns="http://www.w3.org/2000/svg"><g clip-rule="evenodd" fill-rule="evenodd"><circle cx="256" cy="256" fill="#ff5a54" r="240"/><path d="m495.289 274.594c-9.019 117.7-102.937 211.638-220.629 220.689l-147.398-147.398c-3.75-3.095-6.147-7.776-6.147-13v-155.624l41.975 24.274-37.654-37.654c3.086-3.446 7.575-5.623 12.541-5.623h236.045c4.966 0 9.455 2.172 12.541 5.611z" fill="#db3a3c"/><path d="m390.884 179.244-131.363 75.981c-2.076 1.238-4.742 1.344-6.958.051l-131.448-76.015v155.624c0 9.287 7.575 16.857 16.862 16.857h236.045c9.286 0 16.862-7.57 16.862-16.857zm-252.907-18.986h236.045c4.966 0 9.455 2.172 12.541 5.611l-130.55 75.521-130.578-75.51c3.087-3.445 7.576-5.622 12.542-5.622z" fill="#fff"/></g></svg>